# xmcd
#
# Track frame offsets: 
#        150
#        14952
#        131189
#        170098
#
# Disc length: 3393 seconds
#
# Revision: 1
# Processed by: cddbd v1.5.1PL2 Copyright (c) Steve Scherf et al.
# Submitted via: freedbtool 1.11
#
DISCID=3b0d3f04
DTITLE=Buddy Guy with Stevie Ray Vaughan - Live 7-30-89 Chicago
DYEAR=1989
DGENRE=Blues
TTITLE0=It's Called The Blues
TTITLE1=Champagne and Reefer
TTITLE2=Mary Had A Little Lamb
TTITLE3=Leave My Girl Alone
EXTD=
EXTT0=
EXTT1=
EXTT2=
EXTT3=
PLAYORDER=
